<?xml version="1.0" encoding="UTF-8"?>
<svg version="1.1" xmlns="http://www.w3.org/2000/svg" width="512" height="512">
<path d="M0 0 C1.36344629 -0.00462392 2.72688757 -0.01098672 4.09031868 -0.01890898 C7.79012807 -0.03542136 11.4895184 -0.02743985 15.18932819 -0.0149641 C19.19759602 -0.00584071 23.2057963 -0.01991913 27.21405029 -0.03088379 C35.04773071 -0.0485965 42.88125715 -0.04486154 50.71494341 -0.03323323 C57.08603705 -0.02417048 63.45708778 -0.02298714 69.82818604 -0.02732849 C70.73769205 -0.02794142 71.64719807 -0.02855436 72.58426487 -0.02918586 C74.43236591 -0.03046486 76.28046693 -0.03176172 78.12856793 -0.03307623 C95.42603097 -0.04446079 112.72340897 -0.03140174 130.02085805 -0.00987476 C144.83735287 0.00799428 159.65372229 0.00488958 174.47021484 -0.0135498 C191.70912932 -0.03499413 208.94796942 -0.04336235 226.18689537 -0.03110075 C228.02789687 -0.02982666 229.86889838 -0.02856917 231.7098999 -0.02732849 C233.06833124 -0.02640284 233.06833124 -0.02640284 234.45420563 -0.02545848 C240.81179421 -0.02201626 247.16933529 -0.02780952 253.5269165 -0.0372467 C261.28308816 -0.04850775 269.03909806 -0.04534084 276.79525137 -0.02412373 C280.74657427 -0.01366822 284.69762824 -0.0093965 288.64894867 -0.02272034 C292.27615078 -0.03476555 295.90283836 -0.02788584 299.52999473 -0.00681013 C301.44187302 -0.00032629 303.35378792 -0.01317084 305.26562691 -0.02703905 C317.12552768 0.07868415 328.6199151 2.71245105 339.14404297 8.32043457 C339.80831299 8.66300293 340.47258301 9.00557129 341.15698242 9.35852051 C346.50156118 12.19172825 351.19642331 15.54814022 355.76904297 19.50793457 C356.95820312 20.40318848 356.95820312 20.40318848 358.17138672 21.31652832 C367.70426534 29.35855074 374.70162017 40.80758138 378.76904297 52.50793457 C379.10126106 53.42755478 379.43347916 54.34717499 379.77576447 55.29466248 C383.7217023 67.84497059 383.33255378 80.342567 383.28662109 93.39074707 C383.2920493 95.98928213 383.29917585 98.58781411 383.30786133 101.18634033 C383.32554218 107.47997104 383.32185358 113.77340972 383.31021076 120.0670476 C383.30113525 125.18719067 383.29997012 130.30728037 383.30430603 135.4274292 C383.30491896 136.1593121 383.30553189 136.89119499 383.3061634 137.64525616 C383.30744245 139.1325892 383.3087393 140.61992222 383.31005377 142.10725522 C383.32142899 156.01687844 383.30839408 169.92639579 383.2868523 183.83600163 C383.26898409 195.74167287 383.27208906 207.64718803 383.29052734 219.55285645 C383.31198834 233.41656241 383.32033064 247.28017585 383.30807829 261.1438961 C383.30680424 262.6254107 383.30554676 264.10692531 383.30430603 265.58843994 C383.30338038 266.68151669 383.30338038 266.68151669 383.30243602 267.7966758 C383.29899876 272.9039224 383.30477619 278.01110975 383.31422424 283.11834717 C383.32668844 290.00665225 383.31767102 296.89465962 383.29464722 303.7829361 C383.28938522 306.30190801 383.29083053 308.82090484 383.29969788 311.33986664 C383.35171928 327.62668725 382.77890532 342.20322994 374.95654297 356.88293457 C374.61397461 357.54720459 374.27140625 358.21147461 373.91845703 358.89587402 C371.08524929 364.24045278 367.72883731 368.93531491 363.76904297 373.50793457 C363.17220703 374.30070801 362.57537109 375.09348145 361.96044922 375.91027832 C350.33522432 389.69062513 331.33546403 398.91294832 313.51244545 400.73915291 C308.58304014 401.03540394 303.65345116 401.04745895 298.71652603 401.02435493 C295.95691324 401.0115154 293.19827028 401.02319987 290.43869019 401.04039001 C285.5793666 401.06685345 280.72028873 401.07269424 275.86090088 401.07128906 C268.06523785 401.06904381 260.26987625 401.08337608 252.4743309 401.12687492 C249.77057332 401.13663783 247.0673027 401.12804119 244.36355591 401.11817932 C229.97184662 400.85081225 229.97184662 400.85081225 217.77685547 407.69543457 C217.14005859 408.3064502 216.50326172 408.91746582 215.84716797 409.54699707 C215.20263672 410.19410645 214.55810547 410.84121582 213.89404297 411.50793457 C213.20568359 412.17566895 212.51732422 412.84340332 211.80810547 413.53137207 C209.77870139 415.50776932 207.77056483 417.50334446 205.76904297 419.50793457 C205.21829102 420.0570752 204.66753906 420.60621582 204.10009766 421.17199707 C201.77045941 423.49716384 199.44986344 425.83090258 197.13623047 428.17199707 C195.11310784 430.16841181 193.05757682 432.0425842 190.89404297 433.88293457 C187.15358 437.06925487 183.72125319 440.51694098 180.26904297 444.00793457 C175.60044229 448.7238882 170.8533274 453.23758164 165.76904297 457.50793457 C165.11935547 458.07383301 164.46966797 458.63973145 163.80029297 459.22277832 C158.24641338 464.05966116 155.24706495 464.88076306 147.73388672 464.77355957 C140.74370892 464.14729858 136.68072719 458.53900148 132.03857422 453.78137207 C130.11375166 451.85323656 128.16165441 450.0753894 126.08154297 448.32043457 C122.10344903 444.91633414 118.44904458 441.22666285 114.76904297 437.50793457 C110.60190805 433.29713044 106.41723456 429.23148992 101.88623047 425.41027832 C98.90739011 422.73371881 96.13776855 419.86339218 93.33154297 417.00793457 C84.6558744 408.24888201 77.75730206 401.34025038 64.67051697 401.24006653 C63.55139671 401.24625252 63.55139671 401.24625252 62.40966797 401.25256348 C61.20069603 401.2471328 61.20069603 401.2471328 59.96730042 401.24159241 C58.22679775 401.23473087 56.48627372 401.23218685 54.74575806 401.23353958 C51.97692593 401.23451186 49.20847466 401.221477 46.43969727 401.20455933 C38.57050567 401.15852033 30.70135303 401.13372418 22.83203125 401.1270752 C18.00621126 401.12201648 13.18078752 401.09754421 8.35510254 401.0617485 C6.53098955 401.05204679 4.70682136 401.04956502 2.88269043 401.0549202 C-11.53380496 401.09523464 -24.64500163 399.60192841 -37.60595703 392.69543457 C-38.27022705 392.35286621 -38.93449707 392.01029785 -39.61889648 391.65734863 C-44.96347524 388.82414089 -49.65833737 385.46772892 -54.23095703 381.50793457 C-55.02373047 380.91109863 -55.81650391 380.3142627 -56.63330078 379.69934082 C-66.1661794 371.6573184 -73.16353424 360.20828776 -77.23095703 348.50793457 C-77.72928417 347.12850426 -77.72928417 347.12850426 -78.23767853 345.72120667 C-82.18361636 333.17089855 -81.79446785 320.67330214 -81.74853516 307.62512207 C-81.75396336 305.02658701 -81.76108992 302.42805503 -81.76977539 299.82952881 C-81.78745624 293.5358981 -81.78376764 287.24245942 -81.77212483 280.94882154 C-81.76304931 275.82867847 -81.76188418 270.70858878 -81.76622009 265.58843994 C-81.76683302 264.85655704 -81.76744596 264.12467415 -81.76807746 263.37061298 C-81.76935651 261.88327994 -81.77065337 260.39594692 -81.77196783 258.90861392 C-81.78334305 244.9989907 -81.77030814 231.08947335 -81.74876636 217.17986751 C-81.73089815 205.27419628 -81.73400312 193.36868111 -81.75244141 181.4630127 C-81.7739024 167.59930673 -81.7822447 153.73569329 -81.76999235 139.87197304 C-81.76871831 138.39045844 -81.76746082 136.90894383 -81.76622009 135.4274292 C-81.76560299 134.69871137 -81.76498589 133.96999353 -81.76435009 133.21919334 C-81.76091282 128.11194674 -81.76669025 123.00475939 -81.77613831 117.89752197 C-81.7886025 111.0092169 -81.77958508 104.12120952 -81.75656128 97.23293304 C-81.75129928 94.71396113 -81.7527446 92.1949643 -81.76161194 89.6760025 C-81.81363334 73.38918189 -81.24081938 58.8126392 -73.41845703 44.13293457 C-72.90460449 43.13652954 -72.90460449 43.13652954 -72.38037109 42.11999512 C-69.54716335 36.77541636 -66.19075138 32.08055423 -62.23095703 27.50793457 C-61.63412109 26.71516113 -61.03728516 25.9223877 -60.42236328 25.10559082 C-45.64093023 7.58392775 -22.28540657 -0.16165516 0 0 Z M98.76904297 95.50793457 C84.65161026 109.84945351 79.4556849 127.29337355 79.38183594 147.01843262 C79.64159014 166.54523612 88.28120876 182.55760473 101.51904297 196.63293457 C106.09267305 201.08247392 111.26305612 204.32796285 116.76904297 207.50793457 C117.42517578 207.89852051 118.08130859 208.28910645 118.75732422 208.69152832 C134.57578357 217.39676184 152.74234269 217.97559842 169.92919922 213.72668457 C187.38718205 208.39038415 203.60365279 196.92960042 212.73388672 180.80383301 C221.66369189 163.95734314 225.46344151 144.43841492 220.22875977 125.70080566 C219.21621135 122.56347158 218.04248719 119.55083306 216.76904297 116.50793457 C216.38490234 115.56820801 216.00076172 114.62848145 215.60498047 113.66027832 C212.65600628 107.17052901 208.45202942 101.84109175 203.76904297 96.50793457 C203.17478516 95.81828613 202.58052734 95.1286377 201.96826172 94.41809082 C188.59063102 79.9519163 170.94132322 74.20931573 151.76904297 72.50793457 C130.99159475 72.50793457 113.37342974 81.1036079 98.76904297 95.50793457 Z M60.76904297 270.50793457 C59.50447266 271.5830127 59.50447266 271.5830127 58.21435547 272.67980957 C55.68058295 274.90574057 53.21816357 277.18933137 50.76904297 279.50793457 C49.88474609 280.32777832 49.00044922 281.14762207 48.08935547 281.99230957 C24.39939114 304.67561819 10.01639796 336.0343847 6.76904297 368.50793457 C17.32904297 368.50793457 27.88904297 368.50793457 38.76904297 368.50793457 C39.30529297 365.86793457 39.84154297 363.22793457 40.39404297 360.50793457 C46.85898546 330.72903071 63.46307246 305.91839089 88.73388672 288.81555176 C113.97228899 272.59951498 145.2527252 267.33080537 174.58154297 273.19543457 C182.27967067 274.89057477 189.58765613 277.23205417 196.76904297 280.50793457 C198.491875 281.27943848 198.491875 281.27943848 200.24951172 282.06652832 C208.54406472 285.98314931 215.69473324 290.68493032 222.76904297 296.50793457 C224.06455078 297.57334473 224.06455078 297.57334473 225.38623047 298.66027832 C246.54936045 316.88957875 258.22989067 341.27302078 262.76904297 368.50793457 C273.32904297 368.50793457 283.88904297 368.50793457 294.76904297 368.50793457 C293.17231418 355.84429508 293.17231418 355.84429508 290.14404297 343.69543457 C289.88461914 342.85851074 289.62519531 342.02158691 289.35791016 341.15930176 C282.75252518 320.55143206 272.46529018 302.38997749 257.76904297 286.50793457 C257.24858398 285.93833008 256.728125 285.36872559 256.19189453 284.78186035 C232.52514065 259.14169812 197.75512845 241.08749435 162.50610352 239.34680176 C125.46395888 238.88252654 89.92051894 245.72472259 60.76904297 270.50793457 Z " fill="#3769C1" transform="translate(105.23095703125,23.4920654296875)"/>
<path d="M0 0 C8.80288754 6.34043826 15.4186507 14.72648904 17.58203125 25.4921875 C18.92007691 37.90936834 17.85729499 48.88109459 10.39453125 59.2421875 C3.58210875 67.3274193 -4.72289951 73.55522767 -15.48876953 74.71533203 C-28.40007937 75.61089799 -39.16843729 74.04490094 -49.3515625 65.46484375 C-57.86959925 57.33325857 -62.42046403 48.68416257 -62.88867188 36.85693359 C-63.04371176 24.34263074 -60.22647828 14.71931927 -51.41796875 5.4921875 C-37.63784493 -7.66275112 -16.31305228 -10.17259803 0 0 Z " fill="#3672CE" transform="translate(278.41796875,133.5078125)"/>
</svg>
